<svg data-v-423bf9ae="" xmlns="http://www.w3.org/2000/svg" viewBox="0 0 640.6285749162946 193" class="fontAboveSlogan"><!----><!----><defs data-v-423bf9ae=""><linearGradient data-v-423bf9ae="" gradientTransform="rotate(25)" id="1559936d-fd2c-4d54-8da6-7d848e6d862d" x1="0%" y1="0%" x2="100%" y2="0%"><stop data-v-423bf9ae="" offset="0%" style="stop-color: rgb(82, 150, 170); stop-opacity: 1;"></stop><stop data-v-423bf9ae="" offset="100%" style="stop-color: rgb(0, 0, 0); stop-opacity: 1;"></stop></linearGradient></defs><g data-v-423bf9ae="" id="dba9cb7a-0a31-447a-932b-13e938abef0d" fill="url(#1559936d-fd2c-4d54-8da6-7d848e6d862d)" transform="matrix(12.972972972972974,0,0,12.972972972972974,265.04216581824664,-56.681082222912764)"><path d="M3.88 13.65L4.80 13.65L8.39 4.40L7.15 4.40L4.90 10.28C4.69 10.79 4.52 11.44 4.38 11.96C4.24 11.44 4.05 10.78 3.86 10.28L1.62 4.40L0.28 4.40Z"></path></g><!----><!----><g data-v-423bf9ae="" id="a323f1fa-98e3-41a9-b6e1-99085a524d4d" fill="#555555" transform="matrix(5.714285714285714,0,0,5.714285714285714,-1.2000013036387145,119.00000282696315)"><path d="M4.48 12.03L0.70 2.80L0.21 2.80L4.48 12.95L8.75 2.80L8.26 2.80ZM19.32 2.45L15.05 12.60L15.54 12.60L16.81 9.52L21.83 9.52L23.10 12.60L23.59 12.60ZM19.32 3.50L21.63 9.07L17.01 9.07ZM32.06 2.80L32.06 12.60L36.54 12.60L36.54 12.19L32.48 12.19L32.48 2.80ZM45.50 7.64L49.42 7.64L49.42 7.24L45.50 7.24L45.50 3.21L49.56 3.21L49.56 2.80L45.08 2.80L45.08 12.60L45.50 12.60ZM59.08 2.80ZM58.66 2.80L58.66 12.60L59.08 12.60L59.08 8.48L60.63 8.48L63.76 12.60L64.30 12.60L61.11 8.47C62.01 8.41 62.72 8.15 63.26 7.67C63.80 7.20 64.06 6.52 64.06 5.64C64.06 4.71 63.76 4.00 63.15 3.52C62.55 3.04 61.75 2.80 60.76 2.80ZM59.08 3.21L60.76 3.21C61.63 3.21 62.32 3.41 62.85 3.83C63.37 4.24 63.63 4.85 63.63 5.64C63.63 6.44 63.37 7.04 62.85 7.45C62.32 7.87 61.63 8.08 60.76 8.08L59.08 8.08ZM75.92 2.45L71.65 12.60L72.14 12.60L73.42 9.52L78.43 9.52L79.70 12.60L80.19 12.60ZM75.92 3.50L78.23 9.07L73.61 9.07ZM96.91 3.86L97.76 12.60L98.18 12.60L97.13 2.45L93.21 10.70L89.29 2.45L88.24 12.60L88.66 12.60L89.52 3.86L93.21 11.69ZM107.70 7.48L112.04 7.48L112.04 7.08L107.70 7.08L107.70 3.21L112.32 3.21L112.32 2.80L107.28 2.80L107.28 12.60L112.32 12.60L112.32 12.19L107.70 12.19Z"></path></g></svg>